<?xml version="1.0" encoding="UTF-8"?>
<svg width="1200pt" height="1200pt" version="1.1" viewBox="0 0 1200 1200" xmlns="http://www.w3.org/2000/svg">
 <path d="m1155.1 1141.3c0 4.418-3.582 8-8 8h-817.04c-4.418 0-8-3.582-8-8 0-4.418 3.582-8 8-8h199.39v-77.703c0-4.418 3.582-8 8-8h77.586l0.16797-159.93c0-1.4102 0.36719-2.7344 1.0078-3.8828 0.69141-3.7148 3.9492-6.5234 7.8633-6.5234h173.85v-77.129c0-4.418 3.582-8 8-8h77.129v-173.85c0-3.9141 2.8125-7.1719 6.5234-7.8633 1.1484-0.64062 2.4727-1.0078 3.8828-1.0078l159.93-0.17188v-77.586c0-4.418 3.582-8 8-8h77.703v-199.39c0-4.418 3.582-8 8-8s8 3.582 8 8v817.04zm-962.82-8c4.418 0 8 3.582 8 8 0 4.418-3.582 8-8 8h-139.28c-4.418 0-8-3.582-8-8 0-4.418 3.582-8 8-8zm962.82-937.09c0 4.418-3.582 8-8 8s-8-3.582-8-8v-137.58c0-4.418 3.582-8 8-8s8 3.582 8 8zm-609.64 937.09h69.496l0.074218-69.703h-69.57zm85.434 0h167.05v-69.703h-166.97zm183.05 0h325.16v-325.16h-69.703v75.027c0.20703 0.70703 0.31641 1.457 0.31641 2.2305v170.52c0 4.418-3.582 8-8 8h-170.52c-0.77344 0-1.5234-0.10937-2.2305-0.31641h-75.027v69.703zm-16-85.703v-154.33h-166.79l-0.16406 154.33zm16-154.33v154.33h69.258v-154.33zm0-85.129v69.129h69.129v-69.129zm239.77 239.77v-154.52h-154.52v154.52zm-154.64-170.52h154.33v-69.258h-154.33zm240.04-85.258v-167.05l-69.703 0.074219v166.97zm0-182.98v-69.496h-69.703v69.57zm-240.04 182.98h154.33v-166.96l-154.33 0.16406z"/>
</svg>
